<svg width="108" height="108" viewBox="0 0 108 108" fill="none" xmlns="http://www.w3.org/2000/svg">
<path d="M84.1938 76.7279H80.1199C79.1271 76.7279 78.3228 75.9232 78.3228 74.9307C78.3228 73.9383 79.1273 73.1335 80.1199 73.1335H84.1938C85.1866 73.1335 85.991 73.9383 85.991 74.9307C85.991 75.9232 85.1864 76.7279 84.1938 76.7279Z" fill="#FFD0B8"/>
<path d="M85.8723 52.8845H83.4761V108H85.8723V52.8845Z" fill="#BC6D1E"/>
<path d="M86.5902 78.4054C85.5973 78.4054 84.793 77.6007 84.793 76.6082V73.7327C84.793 72.7403 85.5975 71.9355 86.5902 71.9355C87.5828 71.9355 88.3873 72.7403 88.3873 73.7327V76.6082C88.3873 77.6007 87.5828 78.4054 86.5902 78.4054Z" fill="#FFD0B8"/>
<path d="M86.2312 58.1565H83.1146C82.4527 58.1565 81.9165 57.6199 81.9165 56.9584C81.9165 56.2969 82.4527 55.7603 83.1146 55.7603H86.2312C86.8931 55.7603 87.4294 56.2969 87.4294 56.9584C87.4294 57.6199 86.8931 58.1565 86.2312 58.1565Z" fill="#BC6D1E"/>
<path d="M27.8696 76.7279H23.7957C22.8028 76.7279 21.9985 75.9232 21.9985 74.9307C21.9985 73.9383 22.803 73.1335 23.7957 73.1335H27.8696C28.8624 73.1335 29.6667 73.9383 29.6667 74.9307C29.667 75.9232 28.8624 76.7279 27.8696 76.7279Z" fill="#FFD0B8"/>
<path d="M22.0598 79.7066L17.0967 54.0828L25.5331 78.7816C25.8548 79.7231 25.3521 80.7472 24.4107 81.0686C23.4693 81.3901 22.4452 80.8876 22.1237 79.9462C22.0976 79.8703 22.0752 79.7834 22.0598 79.7066Z" fill="#F7B348"/>
<path d="M67.9344 23.3139L67.9152 23.5056C63.6043 23.0407 58.9099 22.7867 53.9997 22.7867C52.2335 22.7867 50.4939 22.818 48.7925 22.8825C45.7611 22.9975 42.8449 23.2084 40.0841 23.5056L40.0649 23.3139L53.9999 0L67.9344 23.3139Z" fill="#9376E2"/>
<path d="M54.0002 0L49.0876 22.7867L48.793 22.8825C45.7616 22.9975 42.8454 23.2084 40.0846 23.5056L40.0654 23.3139L54.0002 0Z" fill="#745DC6"/>
<path d="M49.5981 77.2335C49.8546 77.1257 65.6295 70.3871 66.8085 57.689L68.1192 65.4292L70.2687 78.132C70.2687 78.132 70.2687 78.1344 70.271 78.1344L75.3274 108H32.6729L37.729 78.1346L39.881 65.4317L41.5464 55.5972C41.8195 58.3385 42.8715 63.0977 46.8206 65.391C52.5552 68.7217 52.0951 74.7317 49.5981 77.2335Z" fill="#9376E2"/>
<path d="M49.3462 60.3159L45.4531 108H32.6729L41.1443 57.9718L43.2773 48.3134" fill="#745DC6"/>
<path d="M92.2594 32.8489C92.2594 36.7046 84.7446 40.0786 73.5322 41.9141C73.791 41.1282 73.9421 40.3829 73.9421 39.779C73.9421 37.2653 72.3317 35.2259 70.3475 35.2259C70.0551 35.2259 69.7748 35.2738 69.5039 35.3578C69.25 33.2442 68.7538 31.2386 68.0493 29.391C63.7622 28.9381 59.0056 28.6865 53.9996 28.6865C48.9936 28.6865 44.237 28.9381 39.9499 29.391C39.2454 31.2386 38.7492 33.2442 38.4953 35.3578C38.2244 35.2738 37.9441 35.2259 37.6517 35.2259C35.6676 35.2259 34.0571 37.2653 34.0571 39.779C34.0571 40.3829 34.2082 41.1282 34.467 41.9141C23.2546 40.0786 15.7397 36.7046 15.7397 32.8489C15.7397 28.3798 25.8331 24.5601 40.084 23.0264C44.395 22.5615 49.0894 22.3075 53.9996 22.3075C56.6045 22.3075 59.1469 22.3794 61.6031 22.5159C61.6054 22.5159 61.6054 22.5159 61.6054 22.5159C63.7812 22.6357 65.8925 22.8083 67.9149 23.0264C82.1663 24.5599 92.2594 28.3798 92.2594 32.8489Z" fill="#9376E2"/>
<path d="M80.1198 72.0552V82.3595C80.1198 82.3595 73.3622 83.2486 70.2709 78.1349C70.2686 78.1349 70.2686 78.1326 70.2686 78.1326L68.1191 65.4297C68.1191 65.4297 68.9865 66.8147 70.4987 68.3341C70.4987 68.3341 70.4987 68.3364 70.501 68.3389C72.6359 70.4831 76.0531 72.8962 80.1198 72.0552Z" fill="#9376E2"/>
<path d="M73.9424 39.779C73.9424 40.3829 73.7913 41.1281 73.5325 41.9141C72.7225 44.4038 70.8606 47.2938 69.4348 47.2938L69.1929 47.4472C66.5378 44.9957 65.1503 41.418 62.3874 40.4979C58.074 39.0601 54.0001 44.0924 54.0001 44.0924C54.0001 44.0924 49.9263 39.0601 45.613 40.4979C44.664 40.8143 43.8781 41.442 43.1449 42.2328C41.7478 43.7425 40.552 45.8369 38.8076 47.4472L38.5656 47.2938C37.1399 47.2938 35.278 44.4038 34.468 41.9141C34.2091 41.1281 34.0581 40.3829 34.0581 39.779C34.0581 37.2652 35.6684 35.2259 37.6527 35.2259C37.945 35.2259 38.2254 35.2738 38.4962 35.3577C38.7502 33.2441 39.2463 31.2385 39.9509 29.3909C44.2379 28.9381 48.9946 28.6864 54.0006 28.6864C59.0065 28.6864 63.7632 28.9381 68.0502 29.3909C68.4266 30.3758 68.7428 31.4039 68.9921 32.4702C69.2148 33.4049 69.3851 34.3705 69.5049 35.3577C69.7757 35.2738 70.056 35.2259 70.3484 35.2259C72.3321 35.2259 73.9424 37.2652 73.9424 39.779Z" fill="#FFD0B8"/>
<path d="M54.0003 45.8897C53.0074 45.8897 52.2031 45.0849 52.2031 44.0925V39.5394C52.2031 38.5469 53.0076 37.7422 54.0003 37.7422C54.993 37.7422 55.7975 38.5469 55.7975 39.5394V44.0925C55.7975 45.0849 54.9932 45.8897 54.0003 45.8897Z" fill="#E2B39F"/>
<path d="M66.8089 57.6902C65.63 70.3884 49.8548 77.1268 49.5985 77.2346C52.0954 74.7329 52.5556 68.7228 46.8211 65.3919C42.9559 63.149 41.8655 58.5432 41.566 55.7778C41.5588 55.7179 41.5516 55.658 41.5468 55.5981C41.5253 55.3728 41.5084 55.1619 41.4941 54.9678C41.4365 54.1194 41.4582 53.5756 41.4605 53.5324C42.0404 53.5946 42.6466 53.6281 43.2769 53.6281C48.2877 53.6281 51.8342 48.2149 53.2791 45.5478C53.7535 44.673 54.0003 44.0931 54.0003 44.0931C54.0003 44.0931 54.2471 44.673 54.7215 45.5478C56.1664 48.2149 59.7132 53.6281 64.7238 53.6281C65.3996 53.6281 66.0466 53.5898 66.6648 53.5178C66.7823 54.2728 66.8517 55.0083 66.8709 55.7272C66.8903 56.3986 66.8688 57.0527 66.8089 57.6902Z" fill="#E6E6E6"/>
<path d="M54.0001 28.6865C48.9941 28.6865 44.2375 28.9381 39.9504 29.391C39.2458 31.2386 38.7497 33.2442 38.4957 35.3578C38.2249 35.2738 37.9446 35.2259 37.6522 35.2259C35.6681 35.2259 34.0576 37.2653 34.0576 39.779C34.0576 40.3829 34.2087 41.1282 34.4675 41.9141C23.2551 40.0786 15.7402 36.7046 15.7402 32.8489C15.7402 28.3798 25.8336 24.5601 40.0845 23.0264C44.3955 22.5615 49.0899 22.3075 54.0001 22.3075C56.6049 22.3075 59.1474 22.3794 61.6035 22.5159C61.4215 22.5254 51.865 22.9952 54.0001 28.6865Z" fill="#745DC6"/>
<path d="M66.8717 55.7276C66.8023 55.7371 66.735 55.7468 66.6656 55.754C66.0474 55.8259 65.4004 55.8643 64.7246 55.8643C58.0748 55.8643 54.0009 46.3293 54.0009 46.3293C54.0009 46.3293 53.54 44.5503 54.0003 44.0925C55.4452 46.7596 59.714 53.6284 64.7246 53.6284C65.4004 53.6284 66.0474 53.59 66.6656 53.5181C66.7831 54.273 66.8525 55.0088 66.8717 55.7276Z" fill="#CCCCCC"/>
<path d="M54.0009 46.3291C54.0009 46.3291 49.9271 55.8641 43.2773 55.8641C42.6854 55.8641 42.1127 55.8354 41.5664 55.7778C41.5592 55.7179 41.552 55.658 41.5472 55.5981C41.4274 54.3974 41.4586 53.5851 41.4609 53.5324C42.0408 53.5946 42.647 53.6281 43.2773 53.6281C48.2881 53.6281 50.4464 46.1563 54.0001 44.0923C54.4604 44.55 54.0009 46.3291 54.0009 46.3291Z" fill="#CCCCCC"/>
<path d="M39.881 65.4318L44.5353 74.0922L37.729 78.1346L37.7195 78.1323C34.6307 83.2484 27.8706 82.3595 27.8706 82.3595V72.0552C34.8199 73.4929 39.881 65.4318 39.881 65.4318Z" fill="#745DC6"/>
<path d="M68.9917 32.4702C61.3498 31.483 40.5377 29.8894 43.1449 42.2328C41.7478 43.7425 40.552 45.8369 38.8076 47.4472L38.5656 47.2938C37.1399 47.2938 35.278 44.4038 34.468 41.9141C34.2091 41.1281 34.0581 40.3829 34.0581 39.779C34.0581 37.2652 35.6684 35.2259 37.6527 35.2259C37.9451 35.2259 38.2254 35.2738 38.4962 35.3577C38.7502 33.2441 39.2463 31.2385 39.9509 29.3909C44.238 28.9381 48.9946 28.6864 54.0006 28.6864C59.0065 28.6864 63.7632 28.9381 68.0503 29.3909C68.4262 30.3758 68.7426 31.4039 68.9917 32.4702Z" fill="#E2B39F"/>
<path d="M80.1198 82.3593C80.1198 82.3593 73.3622 83.2484 70.2709 78.1346C70.2686 78.1346 70.2686 78.1323 70.2686 78.1323L68.1191 65.4294C68.1191 65.4294 68.9865 66.8145 70.4987 68.3338C70.4987 68.3338 70.4987 68.3362 70.501 68.3387C70.6206 68.6355 75.622 80.9382 80.1198 82.3593Z" fill="#745DC6"/>
<path d="M50.5019 35.747C49.7493 35.7071 49.226 35.678 48.7433 35.6805L47.4526 35.6816L46.1632 35.6839C45.681 35.6816 45.1581 35.7097 44.4033 35.7472C44.4485 34.9878 44.8802 34.3744 45.4416 33.9409C46.0098 33.5106 46.7325 33.2843 47.4526 33.2858C48.1726 33.287 48.8948 33.513 49.4622 33.9441C50.0231 34.3776 50.4549 34.9897 50.5019 35.747Z" fill="#4D4D4D"/>
<path d="M63.5967 35.747C62.844 35.7071 62.3209 35.678 61.8381 35.6805L60.5474 35.6816L59.2579 35.6839C58.7757 35.6816 58.2528 35.7097 57.498 35.7472C57.5432 34.9878 57.975 34.3744 58.5363 33.9409C59.1045 33.5106 59.8272 33.2843 60.5474 33.2858C61.2673 33.287 61.9895 33.513 62.557 33.9441C63.1178 34.3776 63.5494 34.9897 63.5967 35.747Z" fill="#4D4D4D"/>
<path d="M66.6647 53.5171C66.0464 53.589 65.3995 53.6274 64.7236 53.6274C58.0738 53.6274 54 44.0924 54 44.0924C54 44.0924 58.0738 39.0601 62.3871 40.4978C65.1499 41.4179 66.5375 44.9957 69.1926 47.4472C70.6831 48.8227 72.5714 49.8434 75.3273 49.8434C75.3275 49.8434 72.1356 52.8965 66.6647 53.5171Z" fill="#E6E6E6"/>
<path d="M54.0001 44.0929C54.0001 44.0929 49.9263 53.6279 43.2765 53.6279C42.6462 53.6279 42.04 53.5944 41.4601 53.5321C35.9126 52.9451 32.6729 49.8441 32.6729 49.8441C35.4285 49.8441 37.3169 48.8232 38.8075 47.4479C41.4626 44.9963 42.8502 41.4186 45.613 40.4985C49.9263 39.0606 54.0001 44.0929 54.0001 44.0929Z" fill="#E6E6E6"/>
<path d="M20.9301 78.8851C20.1532 78.8851 19.4368 78.3776 19.2067 77.5944L18.0086 73.5205C17.7285 72.5682 18.2733 71.5692 19.2257 71.289C20.1783 71.0087 21.1771 71.554 21.4572 72.5061L22.6553 76.58C22.9355 77.5324 22.3906 78.5314 21.4382 78.8115C21.2686 78.8613 21.0978 78.8851 20.9301 78.8851Z" fill="#FFD0B8"/>
<path d="M84.6739 53.9629C86.9238 53.9629 88.7478 52.1389 88.7478 49.889C88.7478 47.6391 86.9238 45.8152 84.6739 45.8152C82.424 45.8152 80.6001 47.6391 80.6001 49.889C80.6001 52.1389 82.424 53.9629 84.6739 53.9629Z" fill="#D84161"/>
<path d="M82.9951 49.889C82.9951 48.056 84.2054 46.5066 85.8706 45.9949C85.4917 45.8785 85.0895 45.8152 84.6725 45.8152C82.4224 45.8152 80.5986 47.6387 80.5986 49.889C80.5986 52.1393 82.4222 53.9629 84.6725 53.9629C85.0895 53.9629 85.4917 53.8996 85.8706 53.7831C84.2054 53.2714 82.9951 51.7221 82.9951 49.889Z" fill="#C1385C"/>
<path d="M49.5986 77.2345C52.0954 74.7328 52.5557 68.7228 46.8212 65.3919C42.9559 63.149 41.8656 58.5432 41.5661 55.7778C41.5589 55.7179 41.5517 55.658 41.5469 55.5981C41.5254 55.3728 41.5085 55.1618 41.4941 54.9678L42.019 54.5436L46.8212 54.9389C46.8212 54.9389 46.3322 59.0965 49.6872 62.4514C53.0421 65.8064 54.6836 72.1495 49.5986 77.2345Z" fill="#CCCCCC"/>
</svg>
